<svg width="625" height="345" viewBox="0 0 625 345" fill="none" xmlns="http://www.w3.org/2000/svg">
<path d="M97.5634 300.443C97.5634 300.443 122.711 251.85 130.463 242.207C138.215 232.564 176.976 125.736 177.354 124.601C177.732 123.467 109.475 130.841 101.345 137.458C93.2147 144.076 85.4625 204.77 78.6558 211.387C71.849 218.005 46.8909 249.014 46.8909 249.014L97.5634 300.443Z" fill="white"/>
<path d="M97.5636 301.388C97.3745 301.388 96.9964 301.199 96.8073 301.199L46.1347 249.77C45.7565 249.392 45.7565 248.825 46.1347 248.447C47.0801 247.123 71.471 217.438 78.0887 210.82C81.1139 207.795 84.5173 192.48 87.9207 177.543C92.2694 158.446 96.24 140.484 100.778 136.702C105.316 132.921 125.736 129.517 141.997 127.248C147.291 126.492 176.787 122.71 178.11 123.845C178.488 124.223 178.488 124.601 178.299 124.979C178.11 125.168 177.165 128.194 175.652 132.164C166.388 157.501 137.837 234.455 131.219 242.774C123.656 252.417 98.698 300.443 98.509 300.821C98.3199 301.199 98.1308 301.388 97.5636 301.388ZM48.2145 249.014L97.3745 298.93C101.345 291.367 122.711 250.715 129.707 241.64C134.055 236.157 148.803 199.097 173.762 131.597C174.896 128.383 175.652 126.492 176.03 125.547C166.955 125.736 109.097 132.353 101.912 138.215C97.7527 141.618 93.4039 160.904 89.6224 177.921C85.8408 194.56 82.6265 208.74 79.4122 212.144C73.3617 218.194 51.807 244.476 48.2145 249.014Z" fill="#231F20"/>
<path d="M84.8955 343.363L116.093 278.51L54.4542 227.837L0.756348 295.338L84.8955 343.363Z" fill="#231F20"/>
<path d="M84.8955 344.12C84.7064 344.12 84.5173 344.12 84.5173 343.931L0.378155 296.094C0.189078 295.905 0 295.716 0 295.527C0 295.338 4.32481e-06 294.96 0.189081 294.771L53.6978 227.27C53.8869 227.081 54.076 226.892 54.265 226.892C54.4541 226.892 54.8323 226.892 55.0214 227.081L116.66 277.754C117.039 277.943 117.039 278.51 116.849 278.888L85.6518 343.742C85.4627 343.931 85.2736 344.12 85.0846 344.309C85.0846 344.12 84.8955 344.12 84.8955 344.12ZM2.26892 294.96L84.5173 341.851L114.959 278.699L54.6432 229.161L2.26892 294.96Z" fill="#231F20"/>
<path d="M99.6437 289.855C99.4546 289.855 99.2655 289.855 99.0765 289.666L46.1349 249.77C45.7568 249.392 45.5677 248.825 45.9459 248.447C46.324 248.069 46.8913 247.88 47.2694 248.258L100.211 288.153C100.589 288.531 100.778 289.098 100.4 289.477C100.4 289.855 100.022 289.855 99.6437 289.855Z" fill="white"/>
<path d="M531.495 300.443C531.495 300.443 506.347 252.039 498.595 242.207C490.843 232.375 452.082 125.736 451.515 124.601C450.948 123.467 519.394 130.841 527.524 137.458C535.654 144.076 543.407 204.77 550.213 211.387C557.02 218.005 582.167 249.014 582.167 249.014L531.495 300.443Z" fill="white"/>
<path d="M531.495 301.388C531.117 301.388 530.739 301.199 530.739 300.821C530.55 300.254 505.402 252.228 497.839 242.774C491.222 234.455 462.86 157.501 453.406 132.164C451.894 128.194 450.948 125.358 450.759 124.979C450.57 124.601 450.759 124.034 450.948 123.845C452.272 122.71 481.768 126.492 487.062 127.248C503.323 129.517 523.743 132.921 528.281 136.702C532.819 140.484 536.978 158.446 541.327 177.543C544.73 192.48 548.134 207.795 550.97 210.82C557.588 217.438 581.979 247.123 582.924 248.447C583.302 248.825 583.302 249.392 582.924 249.77L532.251 301.01C532.062 301.199 531.873 301.388 531.495 301.388ZM453.028 125.547C453.406 126.492 453.974 128.383 455.297 131.597C480.255 199.287 495.192 236.346 499.352 241.64C506.537 250.715 527.713 291.367 531.684 298.93L580.844 249.014C577.063 244.476 555.697 218.194 549.646 212.144C546.243 208.74 543.029 194.56 539.436 177.921C535.655 160.904 531.306 141.429 527.146 138.215C519.961 132.353 462.104 125.736 453.028 125.547Z" fill="#231F20"/>
<path d="M535.844 343.93L513.154 278.51L577.062 236.724L623.575 308.195L535.844 343.93Z" fill="#231F20"/>
<path d="M535.844 344.876C535.655 344.876 535.655 344.876 535.466 344.876C535.277 344.687 535.087 344.498 534.898 344.308L512.209 278.699C512.02 278.321 512.209 277.753 512.587 277.564L576.684 235.967C577.063 235.778 577.63 235.778 578.008 236.157L624.521 307.438C624.71 307.628 624.71 308.006 624.71 308.195C624.71 308.384 624.332 308.762 624.143 308.762L536.411 344.687C536.222 345.065 536.033 345.065 535.844 344.876ZM514.289 278.888L536.6 342.796L622.252 307.817L576.873 238.236L514.289 278.888Z" fill="#231F20"/>
<path d="M529.982 291.934C529.604 291.934 529.415 291.745 529.226 291.556C529.037 291.178 529.037 290.611 529.415 290.233L580.277 257.9C580.655 257.522 581.222 257.711 581.6 258.09C581.978 258.468 581.789 259.035 581.411 259.413C581.411 259.413 581.222 259.413 581.222 259.602L530.55 291.934C530.171 291.934 529.982 292.123 529.982 291.934Z" fill="white"/>
<path d="M183.594 63.1515C183.594 63.1515 116.093 241.64 119.875 243.909C123.656 246.178 207.228 221.598 224.812 217.06L317.271 247.123L417.104 225.947L508.239 253.93L459.457 69.7692L389.498 34.0337L320.863 67.5003L256.01 38.5715L183.594 63.1515Z" fill="white"/>
<path d="M508.238 255.064H508.049L417.103 227.27L317.46 248.257C317.271 248.257 317.082 248.257 316.893 248.257L224.812 218.194C220.085 219.329 210.821 221.976 200.232 225.001C148.803 239.371 122.143 246.367 119.496 244.854C118.173 244.098 116.471 243.152 149.56 152.585C165.82 108.151 182.648 63.5293 182.837 62.9621C183.026 62.773 183.215 62.3949 183.404 62.3949L255.821 37.8149C256.01 37.8149 256.199 37.8149 256.577 37.8149L321.052 66.5546L389.309 33.2771C389.498 33.088 389.876 33.088 390.065 33.2771L460.024 69.0126C460.213 69.2017 460.402 69.3907 460.402 69.5798L508.995 253.552C508.995 253.93 508.995 254.308 508.806 254.497C508.806 254.875 508.427 255.064 508.238 255.064ZM417.103 225.19H417.292L506.915 252.606L458.7 70.5252L389.498 35.1678L321.241 68.4453C321.052 68.6344 320.674 68.6344 320.485 68.4453L255.821 39.7057L184.161 63.9075C158.635 132.353 121.009 234.833 120.631 243.152C125.925 243.53 173.761 230.295 199.476 223.11C210.442 220.085 219.896 217.438 224.434 216.303C224.623 216.303 224.812 216.303 225.001 216.303L317.082 246.367L416.725 225.19H417.103Z" fill="#231F20"/>
<path d="M178.867 126.681C178.488 126.681 178.11 126.492 177.921 126.114C177.543 125.169 177.732 124.223 178.11 123.278C179.434 121.387 181.325 120.063 183.404 119.685C198.72 115.337 214.602 114.202 230.485 116.471C232.375 116.849 234.455 117.038 236.346 117.416C242.775 118.551 249.392 119.685 255.821 118.929C262.439 117.795 268.867 115.337 274.539 111.555C290.044 101.912 299.309 88.1095 299.119 74.8741C299.119 74.3069 299.498 73.9287 300.065 73.9287C300.632 73.9287 301.01 74.3069 301.01 74.685C301.199 88.6767 291.745 103.047 275.674 113.068C269.813 117.038 263.195 119.685 256.388 120.82C249.581 121.765 242.775 120.442 236.346 119.307C234.455 118.929 232.375 118.551 230.485 118.362C214.98 116.093 199.287 117.227 184.35 121.576C182.648 121.954 181.136 122.9 180.19 124.223C180.001 124.601 180.001 125.169 180.001 125.547C180.19 126.114 179.812 126.492 179.434 126.681C179.056 126.681 178.867 126.681 178.867 126.681Z" fill="#D1D3D4"/>
<path d="M171.682 210.064C171.492 210.064 171.492 210.064 171.303 210.064C170.736 209.875 170.547 209.308 170.736 208.929C178.866 186.051 187.942 164.685 206.85 153.719C219.896 146.156 236.913 144.454 257.333 148.236C265.086 149.748 272.838 151.828 280.401 153.908C289.287 156.555 298.174 158.635 307.25 160.148C319.918 162.227 329.183 161.093 336.178 156.933C343.174 152.774 347.712 145.4 352.25 137.837C355.086 132.731 358.3 128.005 362.082 123.656C374.183 110.42 392.901 106.45 412.565 103.235C429.393 100.588 445.465 98.8867 458.511 107.206C458.889 107.395 459.078 107.962 458.889 108.53C458.7 108.908 458.133 109.097 457.566 108.908C445.087 100.967 429.393 102.668 412.944 105.315C393.658 108.341 375.128 112.311 363.405 125.168C359.813 129.517 356.599 134.055 353.763 138.971C349.225 146.534 344.687 154.286 336.935 158.824C329.183 163.362 319.918 164.307 306.682 162.227C297.607 160.526 288.531 158.446 279.644 155.988C272.081 153.908 264.518 151.828 256.766 150.316C236.724 146.534 220.085 148.236 207.417 155.61C188.888 166.198 180.19 187.375 172.06 209.875C172.438 209.686 172.06 210.064 171.682 210.064Z" fill="#D1D3D4"/>
<path d="M317.271 248.258C316.704 248.258 316.325 247.88 316.325 247.313L320.107 67.6895C320.107 67.1223 320.485 66.7441 321.052 66.7441C321.62 66.7441 321.998 67.1223 321.998 67.6895L318.216 247.313C318.216 247.88 317.649 248.258 317.271 248.258Z" fill="#D1D3D4"/>
<path d="M224.812 218.195C224.056 218.195 223.867 217.627 223.867 217.06L255.065 38.5717C255.065 38.0045 255.632 37.8154 256.01 37.8154C256.577 37.8154 256.955 38.3827 256.766 38.9499L225.569 217.438C225.569 217.817 225.19 218.195 224.812 218.195Z" fill="#D1D3D4"/>
<path d="M417.103 227.081C416.725 227.081 416.158 226.703 416.158 226.325L388.742 34.4118C388.742 33.8446 389.12 33.4664 389.498 33.2773C390.065 33.2773 390.443 33.6555 390.632 34.0337L418.049 225.947C418.049 226.514 417.86 227.081 417.103 227.081Z" fill="#D1D3D4"/>
<path d="M483.659 235.968C483.47 235.968 483.47 235.968 483.281 235.968L413.7 206.472L315.002 229.539C314.813 229.539 314.624 229.539 314.435 229.539L228.405 196.262L145.4 217.438C145.022 217.438 144.644 217.438 144.455 217.249C144.266 217.06 144.077 216.682 144.266 216.304L195.695 72.0381C195.695 71.849 196.073 71.6599 196.262 71.4709L253.552 49.1598C253.741 48.9707 254.119 48.9707 254.309 49.1598L320.864 81.681L390.444 47.6472C390.633 47.4581 391.011 47.4581 391.2 47.6472L451.516 78.8449C451.705 79.0339 451.894 79.223 452.083 79.4121L484.793 234.833C484.793 235.211 484.793 235.59 484.415 235.779C484.226 235.968 483.848 235.968 483.659 235.968ZM413.7 204.392C413.889 204.392 413.889 204.392 414.078 204.392L482.335 233.51L450.003 80.1684L390.633 49.3489L321.053 83.3827C320.864 83.5718 320.485 83.5718 320.296 83.3827L253.741 50.8615L197.207 72.7944L146.535 214.98L228.216 193.804C228.405 193.804 228.594 193.804 228.783 193.804L314.813 227.081L413.511 204.014L413.7 204.392Z" fill="#D1D3D4"/>
<path d="M390.444 136.892L383.259 122.333C375.696 106.828 368.133 91.5133 360.381 76.1981C357.355 70.7148 355.843 64.6644 355.843 58.4248C356.221 39.3281 371.914 24.0129 391.011 24.2019C406.704 24.391 420.318 35.1684 424.099 50.2945C426.179 58.4248 425.234 66.9333 421.452 74.3073L402.356 112.879L391.2 135.568C390.822 136.135 390.633 136.324 390.444 136.892ZM390.444 76.1981C400.087 76.1981 407.839 68.4459 407.839 58.9921C407.839 49.3491 400.087 41.597 390.633 41.597C381.179 41.597 373.238 49.3491 373.238 58.803C373.049 68.4459 380.801 76.1981 390.444 76.1981Z" fill="#D73D5C"/>
<path d="M245.989 174.14L238.804 159.581C231.241 144.266 223.678 128.761 215.926 113.446C212.901 107.963 211.388 101.913 211.388 95.673C211.766 76.5762 227.649 61.261 246.745 61.6392C262.25 62.0173 275.674 72.6056 279.645 87.5427C281.725 95.673 280.779 104.181 276.998 111.555L257.901 150.127L246.745 172.816C246.556 173.194 246.367 173.573 245.989 174.14ZM245.989 113.446C255.632 113.446 263.384 105.694 263.384 96.2402C263.384 86.5973 255.632 78.8452 246.178 78.8452C236.724 78.8452 228.783 86.5973 228.783 96.0512C228.783 105.505 236.535 113.257 245.989 113.446Z" fill="#D73D5C"/>
<path d="M523.175 165.631C507.482 154.854 489.898 147.102 471.936 140.673C467.398 139.16 462.671 137.648 458.133 138.593C453.595 139.539 449.246 143.887 450.192 148.614C450.948 152.207 454.351 154.665 457.566 156.555L498.595 182.27C494.058 199.854 500.297 218.384 514.667 229.539" fill="white"/>
<path d="M514.667 230.673C514.478 230.673 514.289 230.673 514.1 230.484C499.541 219.329 493.113 200.61 497.461 182.837L456.999 157.501C453.595 155.421 450.003 152.963 449.247 148.992C448.112 143.698 453.028 138.971 457.944 137.837C462.86 136.702 467.398 138.215 472.314 139.917C493.302 147.291 509.562 155.421 523.743 164.875C524.121 165.253 524.31 165.82 523.932 166.198C523.554 166.576 522.987 166.766 522.608 166.387C508.617 156.744 492.545 148.992 471.558 141.618C467.02 139.917 462.482 138.593 458.322 139.538C454.163 140.484 450.381 144.265 451.137 148.425C451.705 151.639 454.919 153.719 457.944 155.799L498.974 181.513C499.352 181.703 499.541 182.081 499.352 182.648C494.814 199.854 501.054 218.005 515.045 228.972C515.424 229.35 515.613 229.917 515.234 230.295C515.234 230.484 515.045 230.484 514.667 230.673Z" fill="#231F20"/>
<path d="M106.072 165.631C121.765 154.854 139.35 147.102 157.312 140.673C161.661 139.16 166.577 137.648 171.114 138.593C175.652 139.539 180.001 143.887 179.056 148.614C178.299 152.207 174.896 154.665 171.871 156.555L130.841 182.27C135.379 199.854 129.139 218.384 114.77 229.539" fill="white"/>
<path d="M114.581 230.673C114.013 230.673 113.635 230.295 113.635 229.728C113.635 229.35 113.824 229.161 114.013 228.972C128.005 218.005 134.245 199.854 129.707 182.648C129.518 182.27 129.707 181.892 130.085 181.513L171.115 155.799C174.329 153.908 177.354 151.639 177.921 148.425C178.678 144.265 174.707 140.484 170.736 139.538C166.766 138.593 162.039 139.917 157.501 141.618C136.703 148.992 120.442 156.934 106.45 166.387C106.072 166.766 105.505 166.576 105.127 166.198C104.749 165.82 104.938 165.253 105.316 164.875C119.308 155.232 135.757 147.291 156.745 139.917C161.472 138.215 166.199 136.702 171.115 137.837C176.031 138.971 180.757 143.698 179.812 148.992C179.056 152.963 175.652 155.421 172.06 157.501L131.598 182.837C136.135 200.61 129.518 219.329 115.148 230.484C114.959 230.673 114.77 230.673 114.581 230.673Z" fill="#231F20"/>
<path d="M125.736 82.6267C125.547 82.6267 125.358 82.6267 125.169 82.4376L91.7023 56.7231C91.3242 56.345 91.1351 55.7777 91.5133 55.3996C91.8914 55.0214 92.4586 54.8324 92.8368 55.2105L126.303 80.7359C126.682 81.114 126.871 81.6813 126.492 82.0594C126.303 82.4376 126.114 82.6267 125.736 82.6267Z" fill="#D1D3D4"/>
<path d="M303.279 20.9875C302.712 20.9875 302.334 20.6094 302.334 20.2312L299.876 1.13447C299.876 0.567235 300.254 0.189077 300.632 0C301.2 0 301.578 0.378156 301.767 0.75631L304.225 19.8531C304.225 20.4203 303.847 20.9875 303.279 20.9875Z" fill="#D1D3D4"/>
<path d="M522.041 99.0765C521.663 99.0765 521.474 98.8874 521.285 98.6984C520.907 98.3202 521.096 97.753 521.474 97.3748L556.642 69.7696C557.02 69.3914 557.588 69.5805 557.966 69.9587C558.344 70.3368 558.155 70.9041 557.777 71.2822L522.608 98.8874C522.419 99.0765 522.23 99.2656 522.041 99.0765Z" fill="#D1D3D4"/>
<path d="M448.112 32.7101C447.923 32.7101 447.734 32.7101 447.734 32.521C447.356 32.332 447.167 31.7647 447.356 31.1975L455.864 16.2604C456.053 15.8823 456.62 15.6932 457.188 15.8823C457.566 16.0714 457.755 16.6386 457.566 17.2058L449.057 32.1429C448.868 32.521 448.49 32.7101 448.112 32.7101Z" fill="#D1D3D4"/>
<path d="M151.829 319.729C151.64 319.729 151.45 319.729 151.261 319.54C150.883 319.162 150.694 318.594 151.072 318.216L181.892 277.754C182.27 277.376 182.837 277.376 183.215 277.754C183.594 278.132 183.594 278.51 183.404 279.077L152.585 319.54C152.396 319.54 152.207 319.729 151.829 319.729Z" fill="#D1D3D4"/>
<path d="M454.352 311.22C454.163 311.22 453.784 311.031 453.595 310.842L419.562 270.38C419.183 270.002 419.373 269.434 419.751 269.056C420.129 268.867 420.696 268.867 420.885 269.245L454.919 309.708C455.297 310.086 455.108 310.653 454.73 311.031C454.73 311.031 454.541 311.22 454.352 311.22Z" fill="#D1D3D4"/>
<path d="M294.582 306.872C294.014 306.872 293.636 306.305 293.636 305.737L296.851 282.292C296.851 281.725 297.418 281.346 297.985 281.536C298.552 281.536 298.93 282.103 298.741 282.67L295.527 306.115C295.527 306.683 294.96 306.872 294.582 306.872Z" fill="#D1D3D4"/>
</svg>
