<svg width="484" height="407" viewBox="0 0 484 407" fill="none" xmlns="http://www.w3.org/2000/svg">
<path d="M467.057 77.7319H482.875C482.875 77.7319 481.523 278.91 479.495 324.066C477.467 369.223 472.87 403.699 472.87 403.699L405.135 399.102L467.057 77.7319Z" fill="#D73D5C"/>
<path d="M473.547 404.375L404.459 399.643L404.595 398.967L466.516 77.0562H483.687V77.7322C483.687 79.7602 482.335 279.451 480.307 324.067C478.279 368.683 473.682 403.429 473.682 403.835L473.547 404.375ZM406.082 398.427L472.465 403.023C473.141 398.156 477.197 365.303 479.09 324.067C480.983 280.803 482.335 91.3874 482.47 78.4082H467.733L406.082 398.427Z" fill="#732A09"/>
<path d="M448.399 67.0513H473.006C473.006 67.0513 468.95 217.799 460.703 283.506C452.455 349.214 443.127 396.398 443.127 396.398L392.021 391.126L448.399 67.0513Z" fill="#D73D5C"/>
<path d="M443.667 397.074H442.991L391.075 391.666L391.21 390.99L447.859 66.375H473.682V67.051C473.682 68.5382 469.626 218.61 461.379 283.506C453.132 348.402 443.803 395.993 443.803 396.398L443.667 397.074ZM392.832 390.449L442.586 395.587C443.668 389.909 452.32 344.346 460.027 283.371C468.004 220.638 471.924 78.9486 472.33 67.727H449.075L392.832 390.449Z" fill="#732A09"/>
<path d="M429.201 53.1254C450.428 53.8014 456.376 53.1254 456.376 53.1254C456.376 53.1254 457.052 241.053 442.721 312.709C428.39 384.365 414.6 405.727 414.6 405.727C414.6 405.727 319.013 403.023 261.824 385.177C204.634 367.33 162.452 350.565 162.452 350.565C162.452 350.565 174.079 310.005 176.783 285.534C179.487 261.063 204.904 44.4727 204.904 44.4727L429.201 53.1254Z" fill="white"/>
<path d="M414.87 406.403H414.464C413.518 406.403 318.067 403.564 261.553 385.853C205.039 368.142 162.587 351.512 162.181 351.377L161.64 351.107L161.775 350.566C161.911 350.16 173.538 309.871 176.107 285.67C178.675 261.469 203.958 46.7713 204.228 44.6081L204.363 43.9321H205.039L429.201 52.5849C450.157 53.2609 456.241 52.5849 456.376 52.5849L457.187 52.4497V53.2609C457.187 55.1537 457.728 242 443.532 312.98C429.336 383.96 415.411 405.998 415.275 406.133L414.87 406.403ZM163.263 350.16C168.535 352.188 209.095 367.871 261.959 384.501C316.444 401.671 407.434 404.781 414.059 405.051C415.816 402.212 428.795 378.823 441.91 312.575C455.7 244.028 455.565 66.7809 455.565 53.8017C453.402 53.9369 446.236 54.3425 429.066 53.8017L205.445 45.1489C203.958 57.9929 180.027 261.875 177.459 285.535C175.025 308.248 164.75 345.023 163.263 350.16Z" fill="#732A09"/>
<path d="M356.734 363.274C356.734 363.274 333.75 368.547 231.538 336.234C129.327 303.921 132.572 311.898 119.187 298.919C105.802 285.94 96.744 231.454 103.774 226.857C103.774 226.857 122.567 233.077 147.038 242.541C150.283 243.757 155.691 245.515 162.451 247.408C206.391 260.252 311.306 285.805 311.306 285.805C311.306 285.805 311.712 315.954 321.446 339.209C326.178 349.889 340.104 360.435 356.734 363.274Z" fill="#D73D5C"/>
<path d="M351.731 364.356C345.242 364.221 338.752 363.68 332.398 362.598C315.498 360.165 284.267 353.675 231.403 336.91C187.599 322.985 163.127 316.63 148.391 312.71C128.922 307.572 126.488 306.896 118.647 299.325C107.425 288.374 99.1778 249.436 100.8 233.077C101.206 229.291 102.017 227.128 103.369 226.182L103.639 226.046L103.91 226.182C104.045 226.182 122.973 232.536 147.174 241.865C150.283 243.082 155.286 244.704 162.451 246.732C205.851 259.441 310.225 284.858 311.307 285.129L311.847 285.264V285.805C311.847 286.075 312.388 316.09 321.987 338.938C326.855 350.295 341.051 360.165 356.599 362.734L359.979 363.274L356.734 364.086C355.111 364.221 353.489 364.356 351.731 364.356ZM104.045 227.534C103.504 228.074 102.693 229.562 102.287 233.347C100.8 249.166 108.912 287.968 119.728 298.514C127.299 305.814 129.327 306.355 148.796 311.493C163.398 315.414 188.004 321.768 231.809 335.694C284.402 352.323 315.498 358.813 332.263 361.246C338.752 362.328 345.377 362.869 351.867 363.004C337.671 359.218 325.367 350.025 320.906 339.344C311.847 317.982 310.766 290.402 310.631 286.346C302.654 284.453 204.093 260.387 162.181 248.084C154.88 245.921 149.878 244.298 146.768 243.082C124.46 234.429 106.614 228.48 104.045 227.534Z" fill="#732A09"/>
<path d="M412.977 333.26C397.429 360.03 375.392 366.519 356.734 363.274C340.104 360.435 326.179 349.89 321.582 339.074C311.848 315.954 311.442 285.67 311.442 285.67C311.442 285.67 206.527 260.252 162.452 247.273L172.862 11.7544L437.854 40.0112C437.854 40.1464 442.451 282.695 412.977 333.26Z" fill="white"/>
<path d="M365.387 364.761C362.412 364.761 359.573 364.491 356.599 363.95C340.51 361.246 325.908 351.106 320.906 339.344C311.847 317.982 310.766 290.401 310.631 286.345C302.654 284.453 204.093 260.387 162.181 248.084L161.64 247.949V247.408L172.051 11.2134L172.727 11.3486L438.259 39.6054V40.1462C438.259 42.5798 442.451 283.506 413.247 333.665C401.755 353.675 384.585 364.761 365.387 364.761ZM163.263 246.867C207.067 259.711 310.495 284.723 311.577 284.993L312.118 285.129V285.669C312.118 285.94 312.659 315.954 322.258 338.803C327.125 350.16 341.321 360.029 356.869 362.598C369.848 364.761 394.184 363.95 412.436 332.854C440.828 284.317 437.448 54.0718 437.313 40.687L173.673 12.5654L163.263 246.867Z" fill="#732A09"/>
<path d="M215.367 91.9798L215.12 93.3091L389.257 125.685L389.504 124.356L215.367 91.9798Z" fill="#732A09"/>
<path d="M210.192 148.06L209.908 149.382L380.709 185.995L380.992 184.673L210.192 148.06Z" fill="#732A09"/>
<path d="M205.126 204.201L204.799 205.513L375.47 248.045L375.797 246.733L205.126 204.201Z" fill="#732A09"/>
<path d="M366.468 54.3424H366.062C358.491 54.2072 352.407 47.8528 352.542 40.2816C352.678 36.3608 354.435 32.5752 357.41 30.0064L376.338 13.7824C379.988 10.808 385.261 11.3488 388.235 14.864C391.074 18.3792 390.804 23.3816 387.424 26.4912L374.85 37.9832C374.58 38.2536 374.174 38.2536 373.904 37.9832C373.634 37.7128 373.634 37.3072 373.904 37.0368L386.478 25.68C389.452 23.1112 389.722 18.5144 387.154 15.54C384.585 12.5656 379.988 12.2952 377.014 14.864L358.086 31.088C352.813 35.5496 352.137 43.3912 356.598 48.664C361.06 53.9368 368.902 54.6128 374.174 50.1512C374.445 49.8808 374.715 49.6104 374.986 49.4752L394.184 30.5472C400.538 23.3816 399.998 12.4304 392.832 6.076C386.478 0.397605 376.878 0.127203 370.254 5.5352L343.214 30.5472C342.943 30.8176 342.538 30.8176 342.267 30.5472C341.997 30.2768 341.997 29.8712 342.267 29.6008L369.307 4.58881C377.014 -2.17119 388.911 -1.36 395.671 6.3464C402.026 13.6472 401.755 24.5984 395.13 31.6288L376.067 50.4216C373.498 52.9904 370.118 54.3424 366.468 54.3424Z" fill="#732A09"/>
<path d="M18.5984 273.231C11.2976 269.851 9.40478 266.336 13.4608 261.198C17.5168 256.061 40.3656 229.697 40.3656 229.697C40.3656 229.697 44.9624 231.454 39.284 239.566C33.6056 247.678 16.7056 266.606 16.7056 266.606L21.4376 270.798L18.5984 273.231Z" fill="#D73D5C"/>
<path d="M18.7336 274.043L18.328 273.907C13.8664 271.879 11.4328 269.716 10.892 267.283C10.4864 265.39 11.1624 263.227 13.0552 260.928C17.1112 255.926 39.6896 229.697 39.96 229.427L40.2304 229.021L40.636 229.156C41.5824 229.562 42.3936 230.508 42.664 231.455C43.34 233.618 42.3936 236.457 39.96 239.972C34.9576 247.273 20.4912 263.497 17.7872 266.607L22.5192 270.798L18.7336 274.043ZM40.636 230.779C37.6616 234.294 17.7872 257.007 14.1368 261.739C12.5144 263.767 11.9736 265.525 12.244 267.012C12.6496 268.905 14.8128 270.798 18.5984 272.555L20.4912 270.933L15.8944 266.877L16.3 266.336C16.4352 266.201 33.3352 247.408 38.8784 239.431C41.5824 235.511 41.7176 233.212 41.4472 231.995C41.312 231.59 41.0416 231.049 40.636 230.779Z" fill="#732A09"/>
<path d="M11.4327 291.348C3.59114 299.46 -1.54646 304.057 1.69834 308.113C4.94314 312.169 8.32313 308.248 10.6215 305.679C12.9199 303.111 19.8151 295.404 19.8151 295.404L11.4327 291.348Z" fill="#D73D5C"/>
<path d="M4.67265 310.411C3.32065 310.276 1.96864 309.6 1.15744 308.383C-2.22256 304.327 2.23904 299.731 8.86385 292.971L11.027 290.807L11.2974 290.402L20.8966 294.863L20.2206 295.539C20.2206 295.675 13.1902 303.246 11.027 305.815C9.53984 307.707 7.24145 310.411 4.67265 310.411ZM11.5678 292.159L9.81024 294.052C2.91504 301.083 -0.194557 304.598 2.23904 307.572C2.77984 308.383 3.72625 308.924 4.67265 309.059C6.56545 309.195 8.72865 306.626 10.0806 305.003C11.8382 302.84 16.9758 297.297 18.7334 295.404L11.5678 292.159Z" fill="#732A09"/>
<path d="M110.399 212.256C80.7903 244.163 35.2279 292.43 35.2279 292.43C35.2279 292.43 26.9807 302.975 17.2463 299.46C7.51193 295.945 4.67273 284.183 11.2975 277.152C17.1111 271.068 67.6759 215.636 89.1727 192.111C91.2007 203.198 101.882 210.228 110.399 212.256Z" fill="white"/>
<path d="M21.4375 300.812C19.9503 300.812 18.4631 300.542 17.1111 300.001C12.3791 298.378 8.72874 294.322 7.51194 289.32C6.43034 284.723 7.64714 279.856 11.0271 276.476C16.7055 270.527 66.1887 216.312 88.9023 191.435L89.8487 190.354L90.1191 191.706C92.0119 202.251 102.152 209.282 110.805 211.445L111.886 211.715L111.075 212.526C81.8719 244.028 36.3095 292.294 35.9039 292.7C35.4983 293.241 29.4143 300.812 21.4375 300.812ZM88.7671 193.463C65.7831 218.746 17.3815 271.744 11.8383 277.558C8.86393 280.667 7.64714 284.994 8.72874 289.185C9.81034 293.646 13.1903 297.297 17.5167 298.784C26.7103 302.164 34.6871 292.024 34.6871 292.024C35.2279 291.483 79.8439 244.163 109.182 212.526C100.394 210.093 91.2007 203.468 88.7671 193.463Z" fill="#732A09"/>
<path d="M182.055 113.425C189.356 105.989 193.412 103.285 194.358 103.285C195.305 103.285 183.678 116.399 183.678 116.399L182.055 113.425Z" fill="#732A09"/>
<path d="M183.677 117.481L181.244 113.29L181.649 112.884C188.004 106.53 192.871 102.474 194.493 102.474H194.899L195.169 102.879C195.304 103.285 195.71 103.961 184.353 116.67L183.677 117.481ZM182.866 113.425L183.812 115.182C187.192 111.262 190.708 107.206 192.6 104.772C189.085 107.341 185.84 110.315 182.866 113.425Z" fill="#732A09"/>
<path d="M177.188 128.432C170.833 135.598 170.428 143.71 168.805 149.794C158.665 148.036 150.148 141.276 145.821 132.082C153.257 128.026 159.882 126.674 167.994 122.213C176.782 117.346 180.568 110.856 184.218 112.073C188.68 116.264 184.759 119.644 177.188 128.432Z" fill="white"/>
<path d="M169.346 150.47L168.67 150.335C158.395 148.442 149.607 141.682 145.281 132.218L145.01 131.677L145.551 131.407C148.931 129.649 152.581 128.027 156.097 126.675C160.017 125.187 163.938 123.43 167.724 121.402C170.833 119.644 173.808 117.481 176.647 115.047C179.757 112.343 182.055 110.451 184.489 111.262L184.759 111.397C189.221 115.723 186.111 119.374 179.892 126.269L177.729 128.703C172.726 134.381 171.509 140.6 170.428 146.008C170.157 147.36 169.887 148.577 169.617 149.794L169.346 150.47ZM146.768 132.218C150.959 140.871 158.936 146.955 168.265 148.983C168.535 148.036 168.67 146.955 168.941 145.873C170.022 140.6 171.374 133.975 176.647 128.027L178.81 125.593C185.3 118.292 187.057 115.994 183.948 112.614C182.325 112.208 180.297 113.831 177.593 116.129C174.754 118.563 171.78 120.861 168.535 122.619C164.749 124.647 160.829 126.404 156.773 127.891C153.257 129.108 149.877 130.595 146.768 132.218Z" fill="#732A09"/>
<path d="M168.806 149.658C168.535 150.875 168.13 152.092 167.589 153.174C164.885 159.258 147.985 169.938 132.437 187.92C128.516 192.517 120.404 201.44 110.399 212.121C101.882 210.093 91.2009 203.062 89.1729 191.841L96.8792 183.323C109.047 169.938 135.952 137.49 144.199 132.758L145.822 131.812C150.148 141.276 158.666 147.901 168.806 149.658Z" fill="#D73D5C"/>
<path d="M110.669 212.932L110.264 212.797C100.935 210.499 90.5246 203.198 88.4966 191.976V191.706L92.2822 187.65L96.4734 183.053C99.583 179.673 103.639 175.076 107.965 170.074C121.215 154.931 137.709 136.003 143.929 132.353L145.551 131.407L146.227 131.001L146.497 131.677C150.689 140.735 159.071 147.225 168.941 149.118L169.617 149.253L169.481 149.929C169.211 151.146 168.805 152.363 168.265 153.579C166.913 156.554 162.451 160.475 156.232 165.883C147.985 172.913 140.143 180.349 132.977 188.461C129.327 192.652 121.891 200.899 110.94 212.662L110.669 212.932ZM89.9838 192.247C92.0118 202.387 101.746 209.282 110.264 211.58C121.08 199.818 128.381 191.841 132.031 187.65C139.332 179.538 147.038 171.967 155.421 164.936C161.234 159.799 165.831 155.878 167.048 153.039C167.453 152.227 167.724 151.281 167.994 150.335C158.26 148.307 150.013 141.952 145.551 133.029L144.469 133.57C138.521 137.085 122.026 155.878 108.777 171.02C104.45 176.023 100.394 180.619 97.2846 183.999L93.0934 188.596L89.9838 192.247Z" fill="#732A09"/>
</svg>
