<svg width="183" height="88" viewBox="0 0 183 88" fill="none" xmlns="http://www.w3.org/2000/svg">
<mask id="mask0_1055_11604" style="mask-type:alpha" maskUnits="userSpaceOnUse" x="65" y="0" width="53" height="54">
<rect x="65" y="0.951172" width="52.5432" height="52.5432" fill="white"/>
</mask>
<g mask="url(#mask0_1055_11604)">
<path d="M91.7656 39.2644C94.5022 39.2644 96.8283 38.3066 98.744 36.3909C100.66 34.4753 101.617 32.1492 101.617 29.4125C101.617 26.6759 100.66 24.3498 98.744 22.4341C96.8283 20.5185 94.5022 19.5607 91.7656 19.5607C89.0289 19.5607 86.7028 20.5185 84.7872 22.4341C82.8715 24.3498 81.9137 26.6759 81.9137 29.4125C81.9137 32.1492 82.8715 34.4753 84.7872 36.3909C86.7028 38.3066 89.0289 39.2644 91.7656 39.2644ZM91.7656 34.8858C90.233 34.8858 88.9377 34.3567 87.8796 33.2985C86.8214 32.2404 86.2923 30.945 86.2923 29.4125C86.2923 27.88 86.8214 26.5847 87.8796 25.5265C88.9377 24.4684 90.233 23.9393 91.7656 23.9393C93.2981 23.9393 94.5934 24.4684 95.6516 25.5265C96.7097 26.5847 97.2388 27.88 97.2388 29.4125C97.2388 30.945 96.7097 32.2404 95.6516 33.2985C94.5934 34.3567 93.2981 34.8858 91.7656 34.8858ZM74.2512 46.9269C73.047 46.9269 72.0162 46.4982 71.1588 45.6407C70.3013 44.7832 69.8726 43.7525 69.8726 42.5483V16.2767C69.8726 15.0726 70.3013 14.0418 71.1588 13.1843C72.0162 12.3269 73.047 11.8981 74.2512 11.8981H81.1475L85.1977 7.51953H98.3335L102.384 11.8981H109.28C110.484 11.8981 111.515 12.3269 112.372 13.1843C113.23 14.0418 113.659 15.0726 113.659 16.2767V42.5483C113.659 43.7525 113.23 44.7832 112.372 45.6407C111.515 46.4982 110.484 46.9269 109.28 46.9269H74.2512ZM74.2512 42.5483H109.28V16.2767H100.413L96.4178 11.8981H87.1133L83.1178 16.2767H74.2512V42.5483Z" fill="#191919"/>
</g>
<path d="M4.464 84.162C3.756 84.162 3.168 84.036 2.7 83.784C2.244 83.52 1.896 83.13 1.656 82.614C1.428 82.098 1.314 81.456 1.314 80.688V75.252H2.772V80.67C2.772 81.186 2.838 81.618 2.97 81.966C3.114 82.302 3.336 82.554 3.636 82.722C3.936 82.878 4.308 82.956 4.752 82.956C5.256 82.956 5.694 82.842 6.066 82.614C6.438 82.386 6.732 82.068 6.948 81.66C7.164 81.252 7.272 80.772 7.272 80.22V75.252H8.73V84H7.308V81.984H7.542C7.302 82.692 6.906 83.232 6.354 83.604C5.814 83.976 5.184 84.162 4.464 84.162ZM11.4578 87.24V75.252H12.8798V77.322H12.6998C12.8918 76.638 13.2698 76.098 13.8338 75.702C14.4098 75.294 15.0938 75.09 15.8858 75.09C16.6658 75.09 17.3438 75.276 17.9198 75.648C18.5078 76.008 18.9578 76.53 19.2698 77.214C19.5938 77.886 19.7558 78.69 19.7558 79.626C19.7558 80.55 19.5938 81.354 19.2698 82.038C18.9578 82.71 18.5138 83.232 17.9378 83.604C17.3618 83.976 16.6778 84.162 15.8858 84.162C15.0938 84.162 14.4158 83.964 13.8518 83.568C13.2878 83.16 12.9038 82.62 12.6998 81.948H12.9158V87.24H11.4578ZM15.5798 82.992C16.4078 82.992 17.0618 82.704 17.5418 82.128C18.0338 81.54 18.2798 80.706 18.2798 79.626C18.2798 78.534 18.0338 77.7 17.5418 77.124C17.0618 76.548 16.4078 76.26 15.5798 76.26C14.7638 76.26 14.1098 76.548 13.6178 77.124C13.1258 77.7 12.8798 78.534 12.8798 79.626C12.8798 80.706 13.1258 81.54 13.6178 82.128C14.1098 82.704 14.7638 82.992 15.5798 82.992ZM24.634 84.162C23.746 84.162 23.074 83.898 22.618 83.37C22.174 82.842 21.952 82.086 21.952 81.102V71.31H23.41V80.994C23.41 81.414 23.464 81.768 23.572 82.056C23.692 82.344 23.866 82.56 24.094 82.704C24.322 82.848 24.604 82.92 24.94 82.92C25.084 82.92 25.222 82.914 25.354 82.902C25.498 82.878 25.63 82.848 25.75 82.812L25.714 84.036C25.522 84.072 25.336 84.102 25.156 84.126C24.988 84.15 24.814 84.162 24.634 84.162ZM30.8263 84.162C29.9743 84.162 29.2363 83.976 28.6123 83.604C27.9883 83.232 27.5023 82.71 27.1543 82.038C26.8183 81.354 26.6503 80.55 26.6503 79.626C26.6503 78.702 26.8183 77.904 27.1543 77.232C27.5023 76.548 27.9883 76.02 28.6123 75.648C29.2363 75.276 29.9743 75.09 30.8263 75.09C31.6783 75.09 32.4163 75.276 33.0403 75.648C33.6643 76.02 34.1443 76.548 34.4803 77.232C34.8283 77.904 35.0023 78.702 35.0023 79.626C35.0023 80.55 34.8283 81.354 34.4803 82.038C34.1443 82.71 33.6643 83.232 33.0403 83.604C32.4163 83.976 31.6783 84.162 30.8263 84.162ZM30.8263 82.992C31.6543 82.992 32.3083 82.704 32.7883 82.128C33.2803 81.54 33.5263 80.7 33.5263 79.608C33.5263 78.528 33.2803 77.7 32.7883 77.124C32.3083 76.548 31.6543 76.26 30.8263 76.26C30.0103 76.26 29.3563 76.548 28.8643 77.124C28.3723 77.7 28.1263 78.528 28.1263 79.608C28.1263 80.7 28.3723 81.54 28.8643 82.128C29.3563 82.704 30.0103 82.992 30.8263 82.992ZM39.9462 84.162C39.3462 84.162 38.8062 84.048 38.3262 83.82C37.8582 83.58 37.4862 83.256 37.2102 82.848C36.9342 82.44 36.7962 81.984 36.7962 81.48C36.7962 80.832 36.9582 80.322 37.2822 79.95C37.6182 79.578 38.1642 79.314 38.9202 79.158C39.6882 79.002 40.7322 78.924 42.0522 78.924H42.8622V79.878H42.0702C41.3382 79.878 40.7262 79.902 40.2342 79.95C39.7422 79.998 39.3522 80.082 39.0642 80.202C38.7762 80.322 38.5722 80.478 38.4522 80.67C38.3322 80.862 38.2722 81.102 38.2722 81.39C38.2722 81.882 38.4402 82.284 38.7762 82.596C39.1242 82.908 39.5922 83.064 40.1802 83.064C40.6602 83.064 41.0802 82.95 41.4402 82.722C41.8122 82.494 42.1002 82.182 42.3042 81.786C42.5202 81.39 42.6282 80.934 42.6282 80.418V78.366C42.6282 77.622 42.4782 77.088 42.1782 76.764C41.8782 76.428 41.3862 76.26 40.7022 76.26C40.1742 76.26 39.6642 76.338 39.1722 76.494C38.6802 76.638 38.1762 76.878 37.6602 77.214L37.1562 76.152C37.4682 75.936 37.8222 75.75 38.2182 75.594C38.6142 75.426 39.0282 75.3 39.4602 75.216C39.8922 75.132 40.3062 75.09 40.7022 75.09C41.4582 75.09 42.0822 75.216 42.5742 75.468C43.0662 75.708 43.4322 76.08 43.6722 76.584C43.9122 77.076 44.0322 77.712 44.0322 78.492V84H42.6642V81.966H42.8262C42.7302 82.422 42.5442 82.812 42.2682 83.136C42.0042 83.46 41.6742 83.712 41.2782 83.892C40.8822 84.072 40.4382 84.162 39.9462 84.162ZM50.0671 84.162C49.2871 84.162 48.6031 83.976 48.0151 83.604C47.4391 83.232 46.9891 82.71 46.6651 82.038C46.3531 81.354 46.1971 80.55 46.1971 79.626C46.1971 78.69 46.3531 77.886 46.6651 77.214C46.9891 76.53 47.4391 76.008 48.0151 75.648C48.6031 75.276 49.2871 75.09 50.0671 75.09C50.8591 75.09 51.5371 75.288 52.1011 75.684C52.6651 76.08 53.0431 76.614 53.2351 77.286H53.0371V71.31H54.4951V84H53.0731V81.912H53.2531C53.0611 82.596 52.6771 83.142 52.1011 83.55C51.5371 83.958 50.8591 84.162 50.0671 84.162ZM50.3731 82.992C51.2011 82.992 51.8551 82.704 52.3351 82.128C52.8271 81.54 53.0731 80.706 53.0731 79.626C53.0731 78.534 52.8271 77.7 52.3351 77.124C51.8551 76.548 51.2011 76.26 50.3731 76.26C49.5571 76.26 48.9031 76.548 48.4111 77.124C47.9191 77.7 47.6731 78.534 47.6731 79.626C47.6731 80.706 47.9191 81.54 48.4111 82.128C48.9031 82.704 49.5571 82.992 50.3731 82.992ZM62.8623 87.24L64.5003 83.55V84.18L60.6663 75.252H62.2503L65.3823 82.92H64.8963L68.0643 75.252H69.5943L64.3923 87.24H62.8623ZM74.6134 84.162C73.7614 84.162 73.0234 83.976 72.3994 83.604C71.7754 83.232 71.2894 82.71 70.9414 82.038C70.6054 81.354 70.4374 80.55 70.4374 79.626C70.4374 78.702 70.6054 77.904 70.9414 77.232C71.2894 76.548 71.7754 76.02 72.3994 75.648C73.0234 75.276 73.7614 75.09 74.6134 75.09C75.4654 75.09 76.2034 75.276 76.8274 75.648C77.4514 76.02 77.9314 76.548 78.2674 77.232C78.6154 77.904 78.7894 78.702 78.7894 79.626C78.7894 80.55 78.6154 81.354 78.2674 82.038C77.9314 82.71 77.4514 83.232 76.8274 83.604C76.2034 83.976 75.4654 84.162 74.6134 84.162ZM74.6134 82.992C75.4414 82.992 76.0954 82.704 76.5754 82.128C77.0674 81.54 77.3134 80.7 77.3134 79.608C77.3134 78.528 77.0674 77.7 76.5754 77.124C76.0954 76.548 75.4414 76.26 74.6134 76.26C73.7974 76.26 73.1434 76.548 72.6514 77.124C72.1594 77.7 71.9134 78.528 71.9134 79.608C71.9134 80.7 72.1594 81.54 72.6514 82.128C73.1434 82.704 73.7974 82.992 74.6134 82.992ZM84.0753 84.162C83.3673 84.162 82.7793 84.036 82.3113 83.784C81.8553 83.52 81.5073 83.13 81.2673 82.614C81.0393 82.098 80.9253 81.456 80.9253 80.688V75.252H82.3833V80.67C82.3833 81.186 82.4493 81.618 82.5813 81.966C82.7253 82.302 82.9473 82.554 83.2473 82.722C83.5473 82.878 83.9193 82.956 84.3633 82.956C84.8673 82.956 85.3053 82.842 85.6773 82.614C86.0493 82.386 86.3433 82.068 86.5593 81.66C86.7753 81.252 86.8833 80.772 86.8833 80.22V75.252H88.3413V84H86.9193V81.984H87.1533C86.9133 82.692 86.5173 83.232 85.9653 83.604C85.4253 83.976 84.7953 84.162 84.0753 84.162ZM91.0692 84V75.252H92.4912V77.322H92.3112C92.5152 76.614 92.8692 76.08 93.3732 75.72C93.8772 75.348 94.5432 75.132 95.3712 75.072L95.8932 75.018L96.0012 76.278L95.0832 76.386C94.2672 76.458 93.6372 76.722 93.1932 77.178C92.7612 77.622 92.5452 78.234 92.5452 79.014V84H91.0692ZM102.143 87.24V75.252H103.565V77.322H103.385C103.577 76.638 103.955 76.098 104.519 75.702C105.095 75.294 105.779 75.09 106.571 75.09C107.351 75.09 108.029 75.276 108.605 75.648C109.193 76.008 109.643 76.53 109.955 77.214C110.279 77.886 110.441 78.69 110.441 79.626C110.441 80.55 110.279 81.354 109.955 82.038C109.643 82.71 109.199 83.232 108.623 83.604C108.047 83.976 107.363 84.162 106.571 84.162C105.779 84.162 105.101 83.964 104.537 83.568C103.973 83.16 103.589 82.62 103.385 81.948H103.601V87.24H102.143ZM106.265 82.992C107.093 82.992 107.747 82.704 108.227 82.128C108.719 81.54 108.965 80.706 108.965 79.626C108.965 78.534 108.719 77.7 108.227 77.124C107.747 76.548 107.093 76.26 106.265 76.26C105.449 76.26 104.795 76.548 104.303 77.124C103.811 77.7 103.565 78.534 103.565 79.626C103.565 80.706 103.811 81.54 104.303 82.128C104.795 82.704 105.449 82.992 106.265 82.992ZM112.638 84V75.252H114.06V77.322H113.88C114.084 76.614 114.438 76.08 114.942 75.72C115.446 75.348 116.112 75.132 116.94 75.072L117.462 75.018L117.57 76.278L116.652 76.386C115.836 76.458 115.206 76.722 114.762 77.178C114.33 77.622 114.114 78.234 114.114 79.014V84H112.638ZM122.619 84.162C121.767 84.162 121.029 83.976 120.405 83.604C119.781 83.232 119.295 82.71 118.947 82.038C118.611 81.354 118.443 80.55 118.443 79.626C118.443 78.702 118.611 77.904 118.947 77.232C119.295 76.548 119.781 76.02 120.405 75.648C121.029 75.276 121.767 75.09 122.619 75.09C123.471 75.09 124.209 75.276 124.833 75.648C125.457 76.02 125.937 76.548 126.273 77.232C126.621 77.904 126.795 78.702 126.795 79.626C126.795 80.55 126.621 81.354 126.273 82.038C125.937 82.71 125.457 83.232 124.833 83.604C124.209 83.976 123.471 84.162 122.619 84.162ZM122.619 82.992C123.447 82.992 124.101 82.704 124.581 82.128C125.073 81.54 125.319 80.7 125.319 79.608C125.319 78.528 125.073 77.7 124.581 77.124C124.101 76.548 123.447 76.26 122.619 76.26C121.803 76.26 121.149 76.548 120.657 77.124C120.165 77.7 119.919 78.528 119.919 79.608C119.919 80.7 120.165 81.54 120.657 82.128C121.149 82.704 121.803 82.992 122.619 82.992ZM129.365 84V76.386H127.637V75.252H129.761L129.365 75.63V74.946C129.365 73.782 129.653 72.9 130.229 72.3C130.817 71.7 131.717 71.364 132.929 71.292L133.595 71.256L133.685 72.39L132.929 72.426C132.437 72.45 132.035 72.558 131.723 72.75C131.411 72.93 131.183 73.188 131.039 73.524C130.895 73.86 130.823 74.274 130.823 74.766V75.45V75.252H136.223V84H134.765V76.386H130.823V84H129.365ZM134.603 73.074V71.436H136.385V73.074H134.603ZM141.634 84.162C140.746 84.162 140.074 83.898 139.618 83.37C139.174 82.842 138.952 82.086 138.952 81.102V71.31H140.41V80.994C140.41 81.414 140.464 81.768 140.572 82.056C140.692 82.344 140.866 82.56 141.094 82.704C141.322 82.848 141.604 82.92 141.94 82.92C142.084 82.92 142.222 82.914 142.354 82.902C142.498 82.878 142.63 82.848 142.75 82.812L142.714 84.036C142.522 84.072 142.336 84.102 142.156 84.126C141.988 84.15 141.814 84.162 141.634 84.162ZM148.132 84.162C147.208 84.162 146.41 83.982 145.738 83.622C145.078 83.25 144.562 82.728 144.19 82.056C143.83 81.384 143.65 80.58 143.65 79.644C143.65 78.732 143.83 77.94 144.19 77.268C144.55 76.584 145.042 76.05 145.666 75.666C146.302 75.282 147.034 75.09 147.862 75.09C148.654 75.09 149.332 75.264 149.896 75.612C150.46 75.96 150.892 76.452 151.192 77.088C151.504 77.724 151.66 78.486 151.66 79.374V79.932H144.766V78.978H150.688L150.4 79.212C150.4 78.252 150.184 77.508 149.752 76.98C149.332 76.44 148.714 76.17 147.898 76.17C147.286 76.17 146.764 76.314 146.332 76.602C145.912 76.878 145.594 77.268 145.378 77.772C145.162 78.264 145.054 78.84 145.054 79.5V79.608C145.054 80.34 145.168 80.958 145.396 81.462C145.636 81.966 145.99 82.35 146.458 82.614C146.926 82.866 147.484 82.992 148.132 82.992C148.648 82.992 149.146 82.914 149.626 82.758C150.118 82.59 150.58 82.32 151.012 81.948L151.516 82.974C151.12 83.334 150.616 83.622 150.004 83.838C149.392 84.054 148.768 84.162 148.132 84.162ZM158.393 87.24V75.252H159.815V77.322H159.635C159.827 76.638 160.205 76.098 160.769 75.702C161.345 75.294 162.029 75.09 162.821 75.09C163.601 75.09 164.279 75.276 164.855 75.648C165.443 76.008 165.893 76.53 166.205 77.214C166.529 77.886 166.691 78.69 166.691 79.626C166.691 80.55 166.529 81.354 166.205 82.038C165.893 82.71 165.449 83.232 164.873 83.604C164.297 83.976 163.613 84.162 162.821 84.162C162.029 84.162 161.351 83.964 160.787 83.568C160.223 83.16 159.839 82.62 159.635 81.948H159.851V87.24H158.393ZM162.515 82.992C163.343 82.992 163.997 82.704 164.477 82.128C164.969 81.54 165.215 80.706 165.215 79.626C165.215 78.534 164.969 77.7 164.477 77.124C163.997 76.548 163.343 76.26 162.515 76.26C161.699 76.26 161.045 76.548 160.553 77.124C160.061 77.7 159.815 78.534 159.815 79.626C159.815 80.706 160.061 81.54 160.553 82.128C161.045 82.704 161.699 82.992 162.515 82.992ZM168.708 73.074V71.436H170.508V73.074H168.708ZM168.888 84V75.252H170.346V84H168.888ZM176.779 84.162C175.903 84.162 175.147 83.97 174.511 83.586C173.875 83.202 173.383 82.668 173.035 81.984C172.699 81.288 172.531 80.484 172.531 79.572C172.531 78.648 172.699 77.85 173.035 77.178C173.383 76.506 173.875 75.99 174.511 75.63C175.147 75.27 175.903 75.09 176.779 75.09C177.319 75.09 177.853 75.186 178.381 75.378C178.909 75.57 179.347 75.84 179.695 76.188L179.191 77.25C178.843 76.914 178.459 76.668 178.039 76.512C177.631 76.356 177.241 76.278 176.869 76.278C175.957 76.278 175.255 76.566 174.763 77.142C174.271 77.706 174.025 78.522 174.025 79.59C174.025 80.634 174.271 81.462 174.763 82.074C175.255 82.674 175.957 82.974 176.869 82.974C177.241 82.974 177.631 82.896 178.039 82.74C178.459 82.584 178.843 82.332 179.191 81.984L179.695 83.046C179.347 83.394 178.903 83.67 178.363 83.874C177.835 84.066 177.307 84.162 176.779 84.162Z" fill="#191919"/>
</svg>
